<?xml version="1.0" encoding="UTF-8" standalone="no"?>
<svg
   version="1.1"
   id="Layer_1"
   x="0px"
   y="0px"
   width="100%"
   viewBox="0 0 256 256"
   enable-background="new 0 0 256 256"
   xml:space="preserve"
   sodipodi:docname="uwp_adobe_express.svg"
   inkscape:version="1.2 (56b05e47e7, 2022-06-09, custom)"
   xmlns:inkscape="http://www.inkscape.org/namespaces/inkscape"
   xmlns:sodipodi="http://sodipodi.sourceforge.net/DTD/sodipodi-0.dtd"
   xmlns="http://www.w3.org/2000/svg"
   xmlns:svg="http://www.w3.org/2000/svg"><defs
   id="defs107" /><sodipodi:namedview
   id="namedview105"
   pagecolor="#ffffff"
   bordercolor="#999999"
   borderopacity="1"
   inkscape:showpageshadow="0"
   inkscape:pageopacity="0"
   inkscape:pagecheckerboard="0"
   inkscape:deskcolor="#d1d1d1"
   showgrid="false"
   inkscape:zoom="1.859375"
   inkscape:cx="116.70588"
   inkscape:cy="126.65546"
   inkscape:window-width="1294"
   inkscape:window-height="704"
   inkscape:window-x="0"
   inkscape:window-y="0"
   inkscape:window-maximized="1"
   inkscape:current-layer="Layer_1" />
<path
   fill="#f3af4b"
   opacity="1"
   stroke="#f3af4b"
   d="M 129,257 H -0.94529 V -1 c 42.298951,0 86.653466,1.000343 129.47663,1.469 0.46634,11.157883 11.59006,29.972815 11.14995,40.660949 -10.69321,0.686443 12.92354,5.722664 2.72311,6.890979 -7.88271,0.902855 -112.305909,22.656918 -68.462652,-7.328133 1.322156,-0.904242 -2.643509,2.738613 -4.409844,4.247074 -5.76318,0.378887 -11.063328,0.696522 -16.444999,1.29137 -0.136597,0.461815 -0.191666,0.646412 -0.454991,1.179955 -0.349232,1.664093 -0.612938,2.979183 -0.613479,4.294384 -0.02125,51.823312 -0.02611,103.646612 0.01612,155.469902 0.0013,1.61265 0.52227,3.22488 0.881729,4.82907 0.08076,-0.008 0.241955,-0.0276 0.190254,0.19882 -0.0517,0.22648 6.111544,-10.61393 6.408263,-10.36239 2.417995,0.45811 -1.324165,10.06596 0.868767,10.60814 4.247844,3.12259 7.824133,-21.81936 12.4186,-20.56765 9.3283,2.54149 12.328491,3.08031 21.955986,4.27706 9.147066,1.13705 24.879936,16.77641 34.088526,17.91053 0.003,9.15798 0.15287,33.24193 0.15328,41.93094 z"
   id="path18"
   sodipodi:nodetypes="cccccssccccscsccssccc" />
<path
   fill="#ffb84f"
   opacity="1"
   stroke="#ffb84f"
   d="m 128.99301,34.00499 c 0.002,-10.689225 0.005,-22.378107 0.007,-33.53599 42.63017,-0.468657 83.90112,-0.47 126.58601,-0.47 L 255.72256,255.84874 129.46866,256 c -0.46907,-8.68901 -0.46948,-16.37801 -0.46939,-25.78378 5.2e-4,-0.71679 0.29802,-31.16424 0.76583,-31.16526 9.56218,-0.34613 23.86872,0.88443 32.91654,0.0412 8.21103,-0.76523 8.16639,13.18479 18.12777,13.09344 6.16248,-0.0565 13.28907,3.37509 16.79561,-3.08095 -1.21403,-11.97185 4.94353,4.22976 7.56191,3.54963 0.44911,-1.7884 0.80777,-3.25161 0.80891,-4.71512 0.0306,-39.03255 0.0347,-78.06513 -0.0123,-117.097635 -0.002,-1.601723 -0.54274,-3.20279 -0.90657,-5.06073 -0.11065,-0.430794 -0.14721,-0.605034 -0.0314,-1.083443 5.1709,-5.160042 10.39066,-9.829376 15.1312,-14.942947 2.76964,-2.98758 5.44194,-6.409501 6.97288,-10.124421 2.59922,-6.307178 1.48203,-12.499138 -3.5554,-17.437301 -5.03757,-4.938305 -11.20735,-5.833454 -17.5174,-3.229225 -3.44003,1.419742 -6.36966,4.076236 -10.00677,6.139316 -2.99963,-0.09855 -5.52196,-0.161468 -8.06894,-0.592838 -1.87158,-1.721962 -7.60767,-4.935045 -5.59329,-4.311119 41.23836,12.773016 -34.84526,12.430154 -52.84762,12.547543 -0.003,-0.247825 -0.54722,-18.74136 -0.54722,-18.74136 z"
   id="path20"
   sodipodi:nodetypes="cccccccsscccsccssssccsccc" />
<path
   fill="#e7e7df"
   opacity="1"
   stroke="#e7e7df"
   d="m 204.8732,85.001518 c 0.0366,0.174233 0.0731,0.348473 0.14139,1.243965 0.0235,6.367501 0.0152,12.013741 0.007,17.659987 -0.0517,36.03435 -0.24619,73.02249 -0.75753,109.05403 -17.74756,-0.25192 -34.07342,-0.19433 -51.68021,-0.10699 -2.0644,0.0102 -5.58333,-0.0858 -8.10875,0.2552 -15.7636,-0.002 -31.06432,0.0396 -46.818498,0.0219 -3.183304,-0.0204 -5.91317,0.018 -9.092621,-0.003 -3.177986,-0.0263 -5.906387,0.007 -9.095489,-0.0192 -8.805214,-0.11778 -17.149723,-0.17537 -25.606812,-0.40274 -0.281029,-0.38585 -2.477993,-0.57167 -2.703464,-0.72729 0,0 -0.161194,0.0194 -0.190442,-0.43929 -0.01613,-17.40922 0.01952,-34.35977 0.0055,-51.31027 -0.03119,-37.7217 -0.08722,-75.443397 -0.133125,-113.165096 0.05506,-0.184593 0.110134,-0.36919 0.703785,-0.817569 40.68,-0.258107 82.821416,-0.26416 122.962806,-0.235649 6.99226,0.005 13.98442,0.155674 20.81405,0.541736 -4.82698,5.051022 -9.49139,9.799374 -14.6344,14.522686 -18.798,-0.0404 -37.1174,-0.06161 -55.43678,-0.06942 -17.15377,-0.0073 -34.308185,0.07892 -51.46078,-0.06232 -3.729729,-0.03071 -5.106217,1.245426 -4.796654,4.947483 0.338684,4.050247 3.290039,3.069244 5.56839,3.074463 32.974634,0.07553 65.949434,0.0868 98.766324,0.425552 -2.55801,2.740112 -4.95817,5.168137 -7.82489,7.587166 -30.60052,0.0029 -60.73451,0.03413 -90.868406,-9.46e-4 -3.261192,-0.0038 -5.970428,-0.0529 -5.690292,4.566955 0.239418,3.948456 2.816368,3.442704 5.267082,3.444634 27.969676,0.02204 55.939386,0.02462 83.790856,0.351051 -2.95175,2.961266 -5.78526,5.603874 -9.08316,8.060417 -26.82052,-0.186065 -53.176644,-0.186065 -79.532052,-0.186065 v 7.795442 h 6.259979 c 20.282174,10e-6 40.564463,-0.0276 60.846353,0.046 1.87439,0.007 3.74643,0.65834 5.41479,1.27393 -2.6597,2.56664 -5.11461,4.86984 -8.03715,7.01043 -21.83166,-0.16262 -43.19568,-0.16262 -64.426851,-0.16262 v 7.81636 c 19.545632,0 38.660431,0 57.678231,0.33164 -2.48533,2.76607 -4.87367,5.20049 -7.72146,7.63101 -15.4514,0.0152 -30.443495,0.0755 -45.435157,0.019 -3.055076,-0.0115 -5.105812,0.35931 -5.029075,4.24567 0.07426,3.76113 2.272568,3.79978 4.960777,3.79017 10.4944,-0.0375 20.989571,-0.0692 31.483065,0.0365 1.90356,0.0192 3.80052,0.69361 5.54483,1.35549 -2.34803,2.43147 -4.54033,4.57298 -7.21288,6.68738 -10.301572,-0.0456 -20.123189,-0.0274 -29.944036,-0.10596 -2.796127,-0.0223 -4.824325,0.26083 -4.830268,3.9249 -0.0057,3.48958 1.662086,4.16452 4.642707,4.12286 7.822449,-0.10931 15.647385,-0.0404 23.611611,0.2077 0.529342,0.66188 0.918403,1.07356 0.924515,1.59387 -4.967301,2.12882 -9.551651,4.14899 -14.600975,6.17354 -2.445961,0.002 -4.426957,-0.003 -6.407952,-0.002 -8.103859,0.003 -8.103859,0.004 -8.11264,8.20625 -0.02203,0.47021 -0.03279,0.6582 -0.274033,1.18126 -0.393821,6.38632 -0.707977,12.43867 -0.664619,18.48845 0.02654,3.70324 0.601753,7.40255 0.936699,11.33091 0.0061,0.2273 -0.01151,0.68169 0.314445,0.94867 8.389984,0.46204 16.453461,0.74769 24.518372,0.79648 2.393104,0.0145 4.79023,-0.63713 7.406414,-1.23629 2.74386,-5.42017 5.26683,-10.58754 8.25614,-15.73897 14.42308,0.0159 28.37985,-0.003 42.3365,0.0314 2.83023,0.007 5.2419,0.0862 5.24695,-3.99228 0.005,-4.0442 -2.34062,-4.03827 -5.20744,-4.03683 -12.29398,0.006 -24.588,-0.0636 -36.86,-0.47197 0.40045,-1.52118 0.77889,-2.676 1.47286,-3.85669 1.98511,-1.2751 3.65469,-2.52431 5.80459,-3.73796 20.76497,0.0505 41.04963,0.067 61.33429,0.0786 2.6649,0.002 5.35202,0.45265 5.45288,-3.77002 0.10461,-4.37875 -2.49974,-4.24663 -5.50971,-4.23889 -15.62924,0.0402 -31.25883,0.0546 -46.88772,-0.0298 -1.90891,-0.0103 -3.8143,-0.66717 -5.5635,-1.3148 2.43912,-2.39037 4.7204,-4.49034 7.46329,-6.58197 15.27768,-0.016 30.09374,-0.0554 44.90981,-0.0517 2.94386,7.3e-4 5.66778,0.2899 5.58774,-4.16313 -0.0754,-4.19359 -2.6866,-3.83907 -5.39954,-3.84134 -12.31911,-0.0103 -24.63821,-0.0347 -36.81178,-0.36527 2.78556,-2.76854 5.42558,-5.22581 8.53868,-7.65991 10.13145,0.019 19.79115,-0.0768 29.44754,0.0601 3.41192,0.0484 4.25859,-1.48814 4.18802,-4.55986 -0.0702,-3.05459 -1.77893,-3.42034 -4.23169,-3.49918 -6.92531,-0.22259 -13.84557,-0.60291 -20.59651,-1.20822 13.67088,-13.11461 27.17044,-25.942061 40.67001,-38.769522 z"
   id="path22"
   sodipodi:nodetypes="ccccscccccccsccsccssssccsssccccssccccccssssccssscccsccsccsccssscccssssccsssccsssccc" />






<path
   fill="#3e3c35"
   opacity="1"
   stroke="none"
   d="m 195.32086,46.550762 c 0.44696,-0.508018 0.73134,-0.713371 1.11113,-1.165539 3.2552,-2.345539 6.18483,-5.002033 9.62486,-6.421775 6.31005,-2.604229 12.47983,-1.70908 17.5174,3.229225 5.03743,4.938163 6.15462,11.130123 3.5554,17.437301 -1.53094,3.71492 -4.20324,7.136841 -6.97288,10.124421 -4.74054,5.113571 -9.9603,9.782905 -15.1312,14.942947 -13.65194,13.131637 -27.1515,25.959088 -41.13495,39.188518 -3.31187,3.29104 -6.13986,6.1801 -8.96786,9.06916 -2.64003,2.45726 -5.28005,4.91453 -8.36952,7.79242 -3.11428,3.04832 -5.7791,5.67605 -8.44393,8.30377 -2.28128,2.09996 -4.56256,4.19993 -7.31623,6.70654 -3.31227,3.31212 -6.15213,6.21762 -8.99201,9.12311 -1.66959,1.24919 -3.33916,2.4984 -5.44087,3.46941 -2.98613,-2.77294 -5.54014,-5.26769 -8.20882,-8.0317 -0.9881,-1.02667 -1.86154,-1.78406 -2.89511,-2.83908 -2.35918,-2.45038 -4.55821,-4.60313 -6.757247,-6.75589 -0.389061,-0.41167 -0.778122,-0.82335 -1.105743,-1.74276 2.307137,-2.96012 4.55282,-5.4125 6.79851,-7.86486 2.1923,-2.14151 6.3846,-6.28302 9.04091,-8.84608 3.18493,-3.3848 3.90584,-4.34806 6.62674,-7.31134 2.38833,-2.43443 4.77667,-4.86885 7.56018,-7.75704 2.56947,-2.86939 4.74377,-5.28502 6.91807,-7.70064 2.45491,-2.30321 5.86557,-6.55809 8.83119,-9.25475 2.73026,-3.133395 3.99408,-3.921652 6.21366,-6.661581 2.83351,-2.642609 6.88551,-6.501604 10.13855,-9.593722 2.83502,-3.04029 4.03203,-4.414678 6.44754,-7.00546 2.40016,-2.428024 4.80032,-4.856049 7.63208,-7.745911 2.80916,-3.021545 5.18675,-5.581257 7.56436,-8.140968 4.6644,-4.748352 9.32881,-9.496704 14.15579,-14.547726 z"
   id="path36"
   sodipodi:nodetypes="ccsssscccccccccccccccccccccccc" />


<path
   fill="#F7AF43"
   opacity="1.000000"
   stroke="none"
   d=" M204.866638,212.008530   C204.918320,175.974182 204.969955,139.939819 205.021652,103.905472   C205.029739,98.259224 205.038071,92.612984 205.088654,86.502045   C205.420807,87.638725 205.961609,89.239792 205.963547,90.841515   C206.010574,129.874023 206.006470,168.906601 205.975845,207.939148   C205.974701,209.402664 205.616043,210.865875 205.190308,212.410049   C204.956650,212.490860 204.866638,212.008530 204.866638,212.008530  z"
   id="path42" />

<path
   fill="#CBC7BA"
   opacity="1.000000"
   stroke="none"
   d=" M180.686462,61.073448   C178.787460,63.658199 176.409866,66.217911 173.758545,68.927368   C140.510071,69.050453 107.535271,69.039185 74.560631,68.963654   C72.282280,68.958435 69.330925,69.939438 68.992241,65.889191   C68.682678,62.187134 70.059166,60.910995 73.788895,60.941708   C90.941490,61.082947 108.095909,60.996708 125.249672,61.004025   C143.569061,61.011837 161.888458,61.033043 180.686462,61.073448  z"
   id="path46" />
<path
   fill="#cac6b9"
   opacity="1"
   stroke="none"
   d="m 165.50207,76.976372 c -1.94895,2.599777 -4.36445,5.190552 -7.08123,7.912178 -28.271,0.123085 -56.24071,0.120506 -84.210391,0.09847 -2.450714,-0.0019 -5.027664,0.503822 -5.267082,-3.444634 -0.280136,-4.619858 2.429441,-4.570755 5.690633,-4.566955 30.1339,0.03507 60.26755,0.0039 90.86807,9.46e-4 z"
   id="path48"
   sodipodi:nodetypes="ccsscc" />
<path
   fill="#e8e8e8"
   opacity="1"
   stroke="#e8e8e8"
   d="m 108.26605,160.58784 c 2.55401,2.49474 5.10802,4.98949 7.77862,7.78832 -0.26185,1.45889 -0.64029,2.61371 -1.38236,4.21875 -2.12266,3.0901 -1.8817,5.72996 -3.64074,8.36984 -2.52296,5.16738 -7.04593,10.33475 -10.25967,15.76544 -10.413,0.21691 -20.135222,0.17049 -29.773512,-0.20349 2.378426,-2.88783 4.711021,-5.41519 6.957657,-8.01678 2.760918,-3.19715 5.450066,-6.45626 8.483055,-9.50586 6.287872,3.43733 9.620651,1.67673 10.582542,-5.01441 0.215111,-1.49635 1.024315,-3.12919 2.052987,-4.24453 2.931001,-3.178 6.116231,-6.12151 9.201421,-9.15728 z"
   id="path50"
   sodipodi:nodetypes="ccccccscssc" />
<path
   fill="#fdfbf7"
   opacity="1"
   stroke="#fdfbf7"
   d="m 86.11628,178.82133 c -2.720169,3.23233 -5.409317,6.49144 -8.170235,9.68859 -2.246636,2.60159 -4.579231,5.12895 -7.276787,8.04117 -0.831459,0.34843 -1.259834,0.34492 -1.688217,0.34143 0,-2e-5 0.01766,-0.45441 0.01299,-1.14838 -0.01748,-10.35857 -0.03027,-20.02316 -0.04307,-29.68774 0.01076,-0.18801 0.02151,-0.376 0.366539,-0.96962 5.110367,-2.96555 9.886467,-4.52586 14.662567,-7.08578 4.584359,-2.02017 9.168709,-5.03994 14.13601,-7.16876 2.581983,2.04412 4.781013,4.19687 6.882763,6.90012 -2.75765,3.24304 -5.306668,6.06049 -8.126416,8.57425 -1.361625,1.21388 -3.154449,2.41638 -4.886596,2.65756 -6.290276,0.87587 -8.009415,3.53702 -5.869545,9.85716 z"
   id="path52"
   sodipodi:nodetypes="cscsccccccsscc" />
<path
   fill="#9c9786"
   opacity="1"
   stroke="#9c9786"
   d="m 148.91815,93.398483 c -1.75519,2.925995 -5.01887,4.833998 -7.54435,7.703957 -2.17905,-0.22213 -3.00698,-0.0417 -4.88137,-0.0485 -20.2819,-0.0737 -43.564256,-0.046 -63.84643,-0.046 0,0 -2.565444,0.23487 -2.88,-1.82794 -0.387823,-2.543286 0.255975,-5.885087 2.582,-5.88767 28.00893,-0.0311 49.74963,-0.07983 76.57015,0.106233 z"
   id="path54"
   sodipodi:nodetypes="ccsssscc" />
<path
   fill="#cbc7ba"
   opacity="1"
   stroke="#cbc7ba"
   d="m 122.28139,164.9164 c 2.35956,-2.94103 5.19942,-4.84669 8.35385,-7.8684 2.22159,0.24098 4.12698,-0.102 6.03589,-0.0917 15.62889,0.0844 31.25848,0.07 46.88772,0.0298 3.00997,-0.008 5.61432,-0.13986 5.50971,4.23889 -0.10086,4.22267 -2.78798,3.77153 -5.45288,3.77002 -20.28466,-0.0116 -39.56971,-0.0281 -60.33468,-0.0786 z"
   id="path56"
   sodipodi:nodetypes="cccssccc" />
<path
   fill="#9c9786"
   opacity="1"
   stroke="#9c9786"
   d="m 134.27426,109.04834 c -1.70667,2.57824 -6.83687,8.1389 -10.34436,8.05053 -10.27171,-0.25879 -14.9214,-0.7227 -53.490888,-0.63838 -2.450859,0.005 -1.640942,-7.47464 0.964286,-7.44031 33.045222,0.43546 41.039302,-0.13436 62.870962,0.0282 z"
   id="path58"
   sodipodi:nodetypes="cssscc" />
<path
   fill="#cac6b9"
   opacity="1"
   stroke="#cac6b9"
   d="m 119.39998,124.95465 c -2.26144,2.96719 -4.98235,4.9305 -8.01156,8.02535 -2.2083,-0.24034 -4.10527,0.0852 -6.00883,0.066 -10.493489,-0.10572 -20.98866,-0.074 -31.48306,-0.0365 -2.688209,0.01 -4.88652,-0.029 -4.960777,-3.79017 -0.07674,-3.88636 1.973999,-4.25717 5.029075,-4.24567 14.991662,0.0565 29.983752,-0.004 45.435152,-0.019 z"
   id="path60"
   sodipodi:nodetypes="cccsssc" />
<path
   fill="#cac6b9"
   opacity="1"
   stroke="#cac6b9"
   d="m 138.57092,149.05954 c 2.20322,-2.63605 5.86834,-5.26378 8.83708,-8.00082 12.62302,-0.09 23.94182,-0.0657 36.26093,-0.0554 2.71294,0.002 5.32414,-0.35225 5.39954,3.84134 0.08,4.45303 -2.64388,4.16386 -5.58774,4.16313 -14.81607,-0.004 -29.63213,0.0358 -44.90981,0.0517 z"
   id="path62"
   sodipodi:nodetypes="ccsssc" />
<path
   fill="#CBC7BA"
   opacity="1.000000"
   stroke="#CBC7BA"
   d=" M109.487915,180.980698   C110.780609,178.324875 112.539650,175.685013 114.640305,172.961273   C127.275932,172.919464 139.569962,172.989182 151.863937,172.983017   C154.730759,172.981583 157.076401,172.975647 157.071381,177.019852   C157.066330,181.098312 154.654663,181.019089 151.824432,181.012131   C137.867783,180.977768 123.911003,180.996582 109.487915,180.980698  z"
   id="path64" />
<path
   fill="#CBC7BA"
   opacity="1.000000"
   stroke="#CBC7BA"
   d=" M103.711533,141.088867   C101.946098,143.568344 99.700417,146.020721 97.253006,148.730637   C89.227333,148.990280 81.402397,148.921356 73.579948,149.030670   C70.599327,149.072327 68.931580,148.397385 68.937241,144.907806   C68.943184,141.243744 70.971382,140.960571 73.767509,140.982910   C83.588356,141.061432 93.409973,141.043228 103.711533,141.088867  z"
   id="path66" />
<path
   fill="#cac6b9"
   opacity="1"
   stroke="#cac6b9"
   d="m 155.39584,132.97818 c 2.35492,-2.91222 6.1826,-5.80128 9.32316,-8.80516 7.23482,0.20333 13.15539,0.58365 20.0807,0.80624 2.45276,0.0788 4.16153,0.44459 4.23169,3.49918 0.0706,3.07172 -0.7761,4.60823 -4.18802,4.55986 -9.65639,-0.13689 -19.31609,-0.0411 -29.44753,-0.0601 z"
   id="path68"
   sodipodi:nodetypes="ccsssc" />


<path
   fill="#CBC7BA"
   opacity="1.000000"
   stroke="#CBC7BA"
   d=" M83.515099,157.005783   C79.203964,159.561325 74.427864,162.121231 69.328766,164.804550   C69.003288,157.007736 69.003288,157.007111 77.107147,157.003937   C79.088142,157.003159 81.069138,157.007935 83.515099,157.005783  z"
   id="path74" />

<path
   fill="#d5d5cd"
   opacity="1"
   stroke="#d5d5cd"
   d="m 69.306999,197.1595 c 0.102425,-0.26349 -0.469512,-0.25998 0.278001,-0.28087 10.041366,0.0221 20.7639,0.0685 30.95601,0.10436 -1.925409,0.33584 -4.322535,0.98747 -6.715639,0.97297 -8.064911,-0.0488 -16.128388,-0.33444 -24.518372,-0.79646 z"
   id="path78"
   sodipodi:nodetypes="ccccc" />
<path
   fill="#dfdfd7"
   opacity="1"
   stroke="#dfdfd7"
   d="m 68.719118,165.387 c 0.241649,10.13715 0.254357,20.6387 0.265619,31.647 -0.328056,-3.51438 -0.899397,-6.53396 -0.925761,-10.55778 -0.04307,-6.57348 0.268977,-14.15006 0.660142,-21.08922 z"
   id="path80"
   style="stroke-width:1.03887"
   sodipodi:nodetypes="ccsc" />





<path
   fill="#989898"
   opacity="1.000000"
   stroke="#989898"
   d=" M86.429100,179.004059   C83.976410,172.501190 85.695549,169.840042 91.985825,168.964172   C93.717972,168.722992 95.510796,167.520493 96.872421,166.306610   C99.692169,163.792847 102.241188,160.975403 105.158981,158.029984   C106.289841,158.534515 107.163277,159.291901 108.151382,160.318573   C105.180862,163.623611 101.995628,166.567123 99.064629,169.745117   C98.035957,170.860458 97.226753,172.493301 97.011642,173.989655   C96.049751,180.680786 92.716972,182.441391 86.429100,179.004059  z"
   id="path92" />





</svg>
